
    <svg width="1200" height="820" viewBox="0 0 1200 820" xmlns="http://www.w3.org/2000/svg">
      <rect width="1200" height="820" fill="#f6f8fb"/>
      <rect x="220" y="70" width="760" height="680" rx="18" fill="#ffffff" stroke="#d5dbe3" stroke-width="4"/>
      <rect x="220" y="70" width="760" height="92" rx="18" fill="#eef2f7"/>
      <text x="600" y="128" text-anchor="middle" font-family="Inter, Arial, sans-serif" font-size="34" font-weight="800" fill="#334155">PHOTO CONSENT FORM</text>
      <text x="286" y="218" font-family="Inter, Arial, sans-serif" font-size="22" font-weight="700" fill="#475569">Client authorization</text>
      <line x1="286" y1="260" x2="914" y2="260" stroke="#cbd5e1" stroke-width="3"/>
      <line x1="286" y1="322" x2="914" y2="322" stroke="#cbd5e1" stroke-width="3"/>
      <line x1="286" y1="384" x2="914" y2="384" stroke="#cbd5e1" stroke-width="3"/>
      <rect x="286" y="438" width="32" height="32" rx="6" fill="#ffffff" stroke="#64748b" stroke-width="3"/>
      <text x="338" y="463" font-family="Inter, Arial, sans-serif" font-size="20" fill="#475569">Use photos for private records</text>
      <rect x="286" y="498" width="32" height="32" rx="6" fill="#ffffff" stroke="#64748b" stroke-width="3"/>
      <text x="338" y="523" font-family="Inter, Arial, sans-serif" font-size="20" fill="#475569">Use anonymized photos for portfolio review</text>
      <rect x="286" y="558" width="32" height="32" rx="6" fill="#ffffff" stroke="#64748b" stroke-width="3"/>
      <text x="338" y="583" font-family="Inter, Arial, sans-serif" font-size="20" fill="#475569">Client may revoke permission in writing</text>
      <text x="286" y="658" font-family="Inter, Arial, sans-serif" font-size="18" font-weight="700" fill="#475569">Signature</text>
      <line x1="390" y1="656" x2="640" y2="656" stroke="#94a3b8" stroke-width="3"/>
      <text x="690" y="658" font-family="Inter, Arial, sans-serif" font-size="18" font-weight="700" fill="#475569">Date</text>
      <line x1="744" y1="656" x2="914" y2="656" stroke="#94a3b8" stroke-width="3"/>
    </svg>
  